<svg width="100" height="100" viewBox="0 0 100 100" fill="none" xmlns="http://www.w3.org/2000/svg">
<g clip-path="url(#clip0_0_1)">
<circle cx="50" cy="50" r="50" fill="#DDDDDD"/>
<path d="M50 0V100" stroke="black"/>
<path d="M85.3553 14.6447L14.6447 85.3553" stroke="black"/>
<path d="M14.6447 14.6447L85.3553 85.3553" stroke="black"/>
<path d="M0 50L100 50" stroke="black"/>
<rect x="65" y="55" width="10" height="30" transform="rotate(-90 65 55)" fill="black"/>
<rect width="10" height="30" transform="matrix(0 -1 -1 0 35 55)" fill="black"/>
<rect x="64.1421" y="42.9289" width="10" height="30" transform="rotate(-135 64.1421 42.9289)" fill="black"/>
<rect width="10" height="30" transform="matrix(-0.707107 -0.707107 -0.707107 0.707107 42.9289 64.1421)" fill="black"/>
<circle cx="50" cy="50" r="47.5" stroke="#2F00B5" stroke-width="5"/>
<path fill-rule="evenodd" clip-rule="evenodd" d="M51.457 10.9793C53.3401 8.92456 56.0755 7.69518 59.3933 8.45425C61.3447 8.90073 62.6584 10.1872 63.4999 11.5208C64.3259 12.8299 64.8024 14.3362 65.0908 15.6409C65.3843 16.9687 65.5145 18.2355 65.5731 19.1561C65.6028 19.6208 65.6148 20.0079 65.6193 20.2839C65.6216 20.4221 65.6221 20.533 65.6218 20.6126C65.6217 20.6524 65.6215 20.6844 65.6212 20.7081L65.6208 20.7374L65.6207 20.7473L65.6206 20.751L65.6206 20.7525C65.6206 20.7525 65.6205 20.7539 63.121 20.7051L65.6205 20.7539L65.6168 20.9448L65.5841 21.1329C64.8716 25.2355 62.2305 28.6326 59.1121 31.4901C57.4446 33.0181 55.5546 34.4678 53.5911 35.8528C53.8733 38.6546 54.211 41.6153 54.5685 44.6639C56.0715 44.2741 57.7373 44.1766 59.3757 44.7628C62.4603 45.8664 64.3798 48.0005 65.3591 50.5494C66.3001 52.9985 66.3387 55.717 65.998 58.1545C65.3273 62.9536 61.8276 65.9697 57.799 67.5001C57.5469 67.5959 57.2913 67.6865 57.0328 67.7721C57.0894 68.5198 57.1414 69.26 57.1881 69.9914C57.5786 76.1051 57.6162 81.7865 56.8623 86.1274C56.3384 89.1436 54.5892 91.2658 52.2598 92.5368C50.0241 93.7566 47.3386 94.1593 44.7539 94.0926C41.366 94.0051 37.8932 92.6652 35.4072 90.585C32.94 88.5206 31.0028 85.279 32.0585 81.5551C32.7152 79.2388 34.2632 76.9837 36.3044 75.5424C38.3952 74.0661 41.2567 73.3071 44.1518 74.671C46.1289 75.6024 47.2929 77.5794 47.891 78.8042C48.2253 79.4888 48.4696 80.1239 48.6304 80.5859C48.7116 80.819 48.7733 81.0131 48.816 81.1539C48.8375 81.2245 48.8542 81.282 48.8664 81.3247L48.8813 81.3776L48.8862 81.3953L48.889 81.406C48.889 81.406 49.4144 83.8512 47 84.5C44.5856 85.1488 44.0609 82.7057 44.0609 82.7057L44.0581 82.6959C44.0533 82.6789 44.0445 82.6486 44.0317 82.6066C44.0061 82.5223 43.9651 82.3926 43.9085 82.2301C43.7939 81.9011 43.623 81.4588 43.398 80.9982C42.8777 79.9326 42.3473 79.348 42.0209 79.1942C41.162 78.7896 40.2176 78.9002 39.1883 79.6269C38.1094 80.3887 37.223 81.67 36.8689 82.9189C36.5584 84.0142 36.9756 85.3779 38.6159 86.7504C40.2374 88.1072 42.6251 89.0359 44.883 89.0943C46.939 89.1474 48.6616 88.8042 49.8649 88.1476C50.9745 87.5422 51.6953 86.6576 51.936 85.2718C52.5838 81.5425 52.5842 76.353 52.1983 70.3101C52.1659 69.8033 52.1309 69.2919 52.0935 68.7762C49.5788 69.0077 46.9773 68.8641 44.5162 68.3809C40.3104 67.5552 36.0748 65.8078 33.002 63.1083C29.8655 60.3529 27.8433 56.4783 28.6639 51.7539C29.3017 48.0821 32.0038 45.0726 35.0055 42.5606C37.776 40.2422 41.2279 38.011 44.5855 35.8407C44.932 35.6168 45.2774 35.3935 45.6211 35.1708C46.5392 34.5758 47.4465 33.9838 48.3342 33.3916C48.2995 33.0019 48.2662 32.6159 48.2344 32.2339C47.7676 26.6282 47.5953 21.5849 48.1983 18.1131C48.6342 15.6033 49.6687 12.9307 51.457 10.9793ZM53.0774 30.0247C54.0218 29.295 54.9126 28.5565 55.7341 27.8038C58.4581 25.3076 60.1347 22.906 60.6214 20.4726C60.6211 20.4409 60.6207 20.4055 60.62 20.3666C60.6166 20.1576 60.6072 19.8497 60.5833 19.474C60.5348 18.7138 60.4293 17.7184 60.2087 16.7202C59.9829 15.6989 59.6666 14.8155 59.2713 14.1889C58.8914 13.5869 58.5551 13.3917 58.2781 13.3283C56.9689 13.0288 55.9994 13.4233 55.1432 14.3575C54.1923 15.3952 53.4531 17.0767 53.1245 18.9688C52.6965 21.4327 52.7324 25.2373 53.0774 30.0247ZM48.894 39.0074C48.709 39.1276 48.5244 39.2474 48.3403 39.3667C48.005 39.584 47.6717 39.7996 47.3405 40.0138C43.9184 42.2271 40.7338 44.2867 38.2144 46.3951C35.3964 48.7533 33.9081 50.7789 33.5902 52.6095C33.1365 55.2216 34.1396 57.4523 36.3019 59.352C38.528 61.3075 41.865 62.7649 45.4795 63.4746C47.5391 63.879 49.6719 63.9821 51.6752 63.7934C51.333 60.1498 50.9098 56.3726 50.4688 52.5935C49.4815 53.3928 48.61 54.2013 47.9463 54.854C47.5432 55.2504 47.2226 55.5837 47.0056 55.8146C46.8972 55.9299 46.815 56.0193 46.7617 56.0779C46.7351 56.1072 46.7157 56.1287 46.7039 56.1419L46.691 56.1563C46.691 56.1563 45.235 57.1556 43.3619 55.5C41.4887 53.8444 42.946 52.8435 42.946 52.8435L42.947 52.8423L42.9495 52.8395L42.9569 52.8312L42.9806 52.8046C43.0004 52.7826 43.028 52.7519 43.0632 52.7133C43.1334 52.6361 43.2339 52.5268 43.3619 52.3906C43.6175 52.1185 43.9843 51.7376 44.4403 51.2891C45.3476 50.3969 46.6311 49.2146 48.1136 48.0862C48.6406 47.6851 49.2047 47.2816 49.7967 46.8958C49.4796 44.2114 49.1703 41.5625 48.894 39.0074ZM55.1646 49.7108C55.1938 49.9577 55.2229 50.2049 55.252 50.4524C55.7281 54.4955 56.1997 58.606 56.584 62.5982C59.2039 61.46 60.7323 59.7085 61.0462 57.4624C61.32 55.5031 61.2206 53.7189 60.6918 52.3427C60.2015 51.0665 59.3194 50.053 57.6914 49.4706C57.1503 49.277 56.3348 49.2827 55.1646 49.7108Z" fill="#FF0000" stroke="#EEEEEE"/>
</g>
<defs>
<clipPath id="clip0_0_1">
<rect width="100" height="100" fill="white"/>
</clipPath>
</defs>
</svg>
